<svg xmlns="http://www.w3.org/2000/svg" viewBox="0 0 93.28 109.49"><g style="isolation:isolate"><g id="Warstwa_2" data-name="Warstwa 2"><g id="Layer_1" data-name="Layer 1"><polygon points="0 80.27 42.66 55.64 93.28 84.86 50.62 109.49 0 80.27" opacity="0.1" style="mix-blend-mode:multiply"/><polygon points="33.92 44.82 33.8 98.69 21.19 91.41 21.31 37.54 33.92 44.82" fill="#939598"/><polygon points="33.92 44.82 42.58 39.79 42.46 93.66 33.8 98.69 33.92 44.82" fill="#939598"/><polygon points="56.95 48.02 56.95 102 84.42 86.15 84.4 32.22 56.95 48.02" fill="#939598"/><polygon points="56.95 48.02 13.65 23.04 13.65 77 56.95 102 56.95 48.02" fill="#939598"/><polygon points="56.95 44.33 56.95 98.31 84.42 82.46 84.4 28.53 56.95 44.33" fill="#c0c7ce"/><polygon points="56.95 44.33 13.65 19.35 13.65 73.31 56.95 98.31 56.95 44.33" fill="#d7e4e8"/><polygon points="33.92 41.14 42.58 36.1 42.46 89.97 33.8 95 33.92 41.14" fill="#c0c7ce"/><polygon points="56.96 47.04 56.96 56.56 59.2 58.24 59.2 48.34 56.96 47.04" fill="#a16845"/><polygon points="80.78 33.29 80.77 43.19 83.03 44.49 83.03 34.59 80.78 33.29" fill="#d4cab8"/><polygon points="83.03 34.59 59.2 48.34 59.2 58.24 83.03 44.49 83.03 34.59" fill="#5b95ab"/><polygon points="71.85 42.46 77.6 39.13 77.6 45.93 71.85 49.25 71.85 42.46" fill="#b5d4de"/><polygon points="77.78 39.06 77.78 46.07 77.78 46.08 77.78 46.08 77.78 46.08 77.78 46.08 71.68 49.59 71.68 49.1 71.85 49 77.42 45.79 77.42 39.02 77.78 38.82 77.78 39.06" fill="#6d6e71"/><polygon points="77.95 46.23 71.68 49.84 71.68 42.32 71.84 42.22 71.85 49 71.85 49.25 77.6 45.93 77.6 38.89 77.75 38.8 77.96 38.92 77.95 46.23" fill="#58595b"/><polygon points="77.96 38.92 77.6 39.13 71.85 42.46 71.68 42.32 71.68 42.32 71.68 42.31 77.6 38.89 77.75 38.8 77.96 38.92" fill="#58595b"/><polygon points="76.05 40.03 71.85 47.13 71.85 42.46 76.05 40.03" fill="#3d3d3d" style="mix-blend-mode:screen"/><polygon points="77.42 41.69 77.42 45.79 73.4 48.11 77.42 41.69" fill="#3d3d3d" style="mix-blend-mode:screen"/><polygon points="65.78 45.97 71.53 42.64 71.53 49.44 65.79 52.76 65.78 45.97" fill="#b5d4de"/><polygon points="71.72 42.57 71.71 49.58 71.72 49.58 71.71 49.59 71.71 49.59 71.71 49.59 65.62 53.1 65.62 52.6 65.79 52.51 71.36 49.29 71.36 42.52 71.72 42.32 71.72 42.57" fill="#6d6e71"/><polygon points="71.89 49.73 65.62 53.35 65.62 45.82 65.78 45.73 65.79 52.51 65.79 52.76 71.53 49.44 71.53 42.4 71.69 42.31 71.9 42.43 71.89 49.73" fill="#58595b"/><polygon points="71.9 42.43 71.53 42.64 65.78 45.97 65.62 45.82 65.61 45.82 65.62 45.82 71.53 42.4 71.69 42.31 71.9 42.43" fill="#58595b"/><polygon points="69.99 43.53 65.79 50.64 65.78 45.97 69.99 43.53" fill="#3d3d3d" style="mix-blend-mode:screen"/><polygon points="71.36 45.2 71.36 49.29 67.34 51.61 71.36 45.2" fill="#3d3d3d" style="mix-blend-mode:screen"/><polygon points="59.2 48.34 56.96 47.04 80.78 33.29 83.03 34.59 59.2 48.34" fill="#88c2db"/><polygon points="59.2 48.34 59.2 58.24 56.95 59.53 56.95 49.63 59.2 48.34" fill="#5b95ab"/><polygon points="42.57 41.32 56.95 49.63 56.95 59.53 42.54 51.21 42.57 41.32" fill="#66a6c0"/><polygon points="44.81 40.03 42.57 41.32 56.95 49.63 59.2 48.34 44.81 40.03" fill="#88c2db"/><polygon points="56.96 64.13 56.96 73.65 59.2 75.33 59.2 65.43 56.96 64.13" fill="#a16845"/><polygon points="80.78 50.38 80.77 60.28 83.03 61.58 83.03 51.68 80.78 50.38" fill="#d4cab8"/><polygon points="83.03 51.68 59.2 65.43 59.2 75.33 83.03 61.58 83.03 51.68" fill="#5b95ab"/><polygon points="71.85 59.55 77.6 56.22 77.6 63.02 71.85 66.34 71.85 59.55" fill="#b5d4de"/><polygon points="77.78 56.15 77.78 63.16 77.78 63.16 77.78 63.17 77.78 63.17 77.78 63.17 71.68 66.68 71.68 66.19 71.85 66.09 77.42 62.87 77.42 56.11 77.78 55.91 77.78 56.15" fill="#6d6e71"/><polygon points="77.95 63.32 71.68 66.93 71.68 59.41 71.84 59.31 71.85 66.09 71.85 66.34 77.6 63.02 77.6 55.98 77.75 55.89 77.96 56.01 77.95 63.32" fill="#58595b"/><polygon points="77.96 56.01 77.6 56.22 71.85 59.55 71.68 59.41 71.68 59.4 71.68 59.4 77.6 55.98 77.75 55.89 77.96 56.01" fill="#58595b"/><polygon points="76.05 57.12 71.85 64.22 71.85 59.55 76.05 57.12" fill="#3d3d3d" style="mix-blend-mode:screen"/><polygon points="77.42 58.78 77.42 62.87 73.4 65.19 77.42 58.78" fill="#3d3d3d" style="mix-blend-mode:screen"/><polygon points="65.78 63.05 71.53 59.73 71.53 66.53 65.79 69.84 65.78 63.05" fill="#b5d4de"/><polygon points="71.72 59.66 71.71 66.67 71.72 66.67 71.71 66.67 71.71 66.68 71.71 66.68 65.62 70.19 65.62 69.69 65.79 69.59 71.36 66.38 71.36 59.61 71.72 59.41 71.72 59.66" fill="#6d6e71"/><polygon points="71.89 66.82 65.62 70.44 65.62 62.91 65.78 62.81 65.79 69.59 65.79 69.84 71.53 66.53 71.53 59.48 71.69 59.4 71.9 59.52 71.89 66.82" fill="#58595b"/><polygon points="71.9 59.52 71.53 59.73 65.78 63.05 65.62 62.91 65.61 62.91 65.62 62.91 71.53 59.48 71.69 59.4 71.9 59.52" fill="#58595b"/><polygon points="69.99 60.62 65.79 67.72 65.78 63.05 69.99 60.62" fill="#3d3d3d" style="mix-blend-mode:screen"/><polygon points="71.36 62.29 71.36 66.38 67.34 68.7 71.36 62.29" fill="#3d3d3d" style="mix-blend-mode:screen"/><polygon points="59.2 65.43 56.96 64.13 80.78 50.38 83.03 51.68 59.2 65.43" fill="#88c2db"/><polygon points="59.2 65.43 59.2 75.33 56.95 76.62 56.95 66.72 59.2 65.43" fill="#5b95ab"/><polygon points="42.57 58.41 56.95 66.72 56.95 76.62 42.54 68.29 42.57 58.41" fill="#66a6c0"/><polygon points="44.82 57.12 42.57 58.41 56.95 66.71 59.2 65.43 44.82 57.12" fill="#88c2db"/><polygon points="56.96 81.27 56.96 90.79 59.2 92.46 59.2 82.56 56.96 81.27" fill="#a16845"/><polygon points="80.78 67.51 80.77 77.41 83.03 78.71 83.03 68.81 80.78 67.51" fill="#d4cab8"/><polygon points="83.03 68.82 59.2 82.56 59.2 92.46 83.03 78.72 83.03 68.82" fill="#5b95ab"/><polygon points="71.85 76.68 77.6 73.36 77.6 80.16 71.85 83.47 71.85 76.68" fill="#b5d4de"/><polygon points="77.78 73.29 77.78 80.29 77.78 80.3 77.78 80.3 77.78 80.31 77.78 80.31 71.68 83.81 71.68 83.32 71.85 83.22 77.42 80.01 77.42 73.24 77.78 73.04 77.78 73.29" fill="#6d6e71"/><polygon points="77.95 80.45 71.68 84.07 71.68 76.54 71.84 76.45 71.85 83.22 71.85 83.47 77.6 80.16 77.6 73.11 77.75 73.03 77.96 73.15 77.95 80.45" fill="#58595b"/><polygon points="77.96 73.15 77.6 73.36 71.85 76.68 71.68 76.54 71.68 76.54 71.68 76.54 77.6 73.11 77.75 73.03 77.96 73.15" fill="#58595b"/><polygon points="76.05 74.25 71.85 81.35 71.85 76.68 76.05 74.25" fill="#3d3d3d" style="mix-blend-mode:screen"/><polygon points="77.42 75.91 77.42 80.01 73.4 82.33 77.42 75.91" fill="#3d3d3d" style="mix-blend-mode:screen"/><polygon points="65.78 80.19 71.53 76.86 71.53 83.66 65.79 86.98 65.78 80.19" fill="#b5d4de"/><polygon points="71.72 76.79 71.71 83.8 71.72 83.81 71.71 83.81 71.71 83.81 71.71 83.81 65.62 87.32 65.62 86.83 65.79 86.73 71.36 83.52 71.36 76.75 71.72 76.55 71.72 76.79" fill="#6d6e71"/><polygon points="71.89 83.96 65.62 87.58 65.62 80.05 65.78 79.95 65.79 86.73 65.79 86.98 71.53 83.66 71.53 76.62 71.69 76.53 71.9 76.65 71.89 83.96" fill="#58595b"/><polygon points="71.9 76.65 71.53 76.86 65.78 80.19 65.62 80.05 65.61 80.05 65.62 80.04 71.53 76.62 71.69 76.53 71.9 76.65" fill="#58595b"/><polygon points="69.99 77.76 65.79 84.86 65.78 80.19 69.99 77.76" fill="#3d3d3d" style="mix-blend-mode:screen"/><polygon points="71.36 79.42 71.36 83.52 67.34 85.84 71.36 79.42" fill="#3d3d3d" style="mix-blend-mode:screen"/><polygon points="59.2 82.56 56.96 81.27 80.78 67.51 83.03 68.82 59.2 82.56" fill="#88c2db"/><polygon points="59.2 82.56 59.2 92.46 56.95 93.75 56.95 83.85 59.2 82.56" fill="#5b95ab"/><polygon points="42.57 75.55 56.95 83.85 56.95 93.75 42.54 85.43 42.57 75.55" fill="#66a6c0"/><polygon points="44.79 74.24 42.57 75.55 56.95 83.85 59.2 82.56 44.79 74.24" fill="#88c2db"/><polygon points="52.49 82.75 46.74 79.42 46.74 86.22 52.49 89.53 52.49 82.75" fill="#b5d4de"/><polygon points="46.55 79.35 46.56 86.36 46.55 86.36 46.56 86.37 46.56 86.37 46.56 86.37 52.66 89.88 52.66 89.38 52.49 89.29 46.92 86.08 46.92 79.31 46.55 79.11 46.55 79.35" fill="#6d6e71"/><polygon points="46.38 86.52 52.66 90.13 52.66 82.61 52.49 82.51 52.49 89.29 52.49 89.53 46.74 86.22 46.74 79.18 46.59 79.09 46.38 79.21 46.38 86.52" fill="#58595b"/><polygon points="46.38 79.21 46.74 79.42 52.49 82.75 52.66 82.61 52.66 82.6 52.66 82.6 46.74 79.18 46.59 79.09 46.38 79.21" fill="#58595b"/><polygon points="48.28 80.32 52.49 87.42 52.49 82.75 48.28 80.32" fill="#3d3d3d" style="mix-blend-mode:screen"/><polygon points="46.92 81.98 46.92 86.08 50.93 88.39 46.92 81.98" fill="#3d3d3d" style="mix-blend-mode:screen"/><polygon points="52.58 65.75 46.83 62.42 46.83 69.22 52.58 72.54 52.58 65.75" fill="#b5d4de"/><polygon points="46.64 62.35 46.65 69.36 46.64 69.37 46.65 69.37 46.65 69.37 46.65 69.37 52.74 72.88 52.74 72.39 52.58 72.29 47.01 69.08 47.01 62.31 46.64 62.11 46.64 62.35" fill="#6d6e71"/><polygon points="46.47 69.52 52.74 73.13 52.74 65.61 52.58 65.51 52.58 72.29 52.58 72.54 46.83 69.22 46.83 62.18 46.67 62.09 46.46 62.21 46.47 69.52" fill="#58595b"/><polygon points="46.46 62.21 46.83 62.42 52.58 65.75 52.74 65.61 52.75 65.61 52.74 65.61 46.83 62.18 46.67 62.09 46.46 62.21" fill="#58595b"/><polygon points="48.37 63.32 52.58 70.42 52.58 65.75 48.37 63.32" fill="#3d3d3d" style="mix-blend-mode:screen"/><polygon points="47.01 64.98 47.01 69.08 51.02 71.4 47.01 64.98" fill="#3d3d3d" style="mix-blend-mode:screen"/><polygon points="52.58 48.68 46.83 45.35 46.83 52.15 52.57 55.46 52.58 48.68" fill="#b5d4de"/><polygon points="46.64 45.28 46.65 52.29 46.64 52.29 46.65 52.3 46.65 52.3 46.65 52.3 52.74 55.81 52.74 55.31 52.57 55.22 47.01 52.01 47.01 45.24 46.64 45.03 46.64 45.28" fill="#6d6e71"/><polygon points="46.47 52.45 52.74 56.06 52.74 48.53 52.58 48.44 52.57 55.22 52.57 55.46 46.83 52.15 46.83 45.11 46.67 45.02 46.46 45.14 46.47 52.45" fill="#58595b"/><polygon points="46.46 45.14 46.83 45.35 52.58 48.68 52.74 48.53 52.75 48.53 52.74 48.53 46.83 45.11 46.67 45.02 46.46 45.14" fill="#58595b"/><polygon points="48.37 46.24 52.58 53.35 52.58 48.68 48.37 46.24" fill="#3d3d3d" style="mix-blend-mode:screen"/><polygon points="47.01 47.91 47.01 52.01 51.02 54.33 47.01 47.91" fill="#3d3d3d" style="mix-blend-mode:screen"/><polygon points="27.72 30.16 27.72 40.06 25.47 41.35 25.47 31.45 27.72 30.16" fill="#a16845"/><polygon points="11.44 23.34 25.47 31.45 25.47 41.35 11.43 33.24 11.44 23.34" fill="#66a6c0"/><polygon points="13.65 22.04 11.44 23.34 25.47 31.45 27.72 30.16 13.65 22.04" fill="#88c2db"/><polygon points="27.72 47.23 27.72 57.12 25.47 58.41 25.47 48.52 27.72 47.23" fill="#a16845"/><polygon points="11.43 40.43 25.47 48.52 25.47 58.41 11.44 50.31 11.43 40.43" fill="#66a6c0"/><polygon points="13.65 39.16 11.43 40.43 25.46 48.56 27.72 47.23 13.65 39.16" fill="#88c2db"/><polygon points="27.72 64.38 27.72 74.28 25.47 75.57 25.47 65.67 27.72 64.38" fill="#a16845"/><polygon points="11.43 57.54 25.47 65.67 25.47 75.57 11.43 67.46 11.43 57.54" fill="#66a6c0"/><polygon points="13.65 56.26 11.43 57.54 25.5 65.66 27.72 64.38 13.65 56.26" fill="#88c2db"/><polygon points="21.44 64.76 15.68 61.43 15.68 68.23 21.43 71.55 21.44 64.76" fill="#b5d4de"/><polygon points="15.5 61.36 15.5 68.37 15.5 68.38 15.5 68.38 15.5 68.38 15.51 68.38 21.6 71.89 21.6 71.4 21.43 71.3 15.86 68.09 15.86 61.32 15.5 61.12 15.5 61.36" fill="#6d6e71"/><polygon points="15.33 68.53 21.6 72.14 21.6 64.61 21.44 64.52 21.43 71.3 21.43 71.55 15.68 68.23 15.68 61.19 15.53 61.1 15.32 61.22 15.33 68.53" fill="#58595b"/><polygon points="15.32 61.22 15.68 61.43 21.44 64.76 21.6 64.61 21.6 64.61 21.6 64.61 15.68 61.19 15.53 61.1 15.32 61.22" fill="#58595b"/><polygon points="17.23 62.33 21.43 69.43 21.44 64.76 17.23 62.33" fill="#3d3d3d" style="mix-blend-mode:screen"/><polygon points="15.86 63.99 15.86 68.09 19.88 70.41 15.86 63.99" fill="#3d3d3d" style="mix-blend-mode:screen"/><polygon points="21.52 47.76 15.77 44.43 15.77 51.23 21.52 54.55 21.52 47.76" fill="#b5d4de"/><polygon points="15.58 44.36 15.59 51.37 15.58 51.38 15.59 51.38 15.59 51.38 15.59 51.38 21.69 54.89 21.69 54.4 21.52 54.3 15.95 51.09 15.95 44.32 15.58 44.12 15.58 44.36" fill="#6d6e71"/><polygon points="15.41 51.53 21.69 55.15 21.69 47.62 21.53 47.52 21.52 54.3 21.52 54.55 15.77 51.23 15.77 44.19 15.62 44.1 15.41 44.22 15.41 51.53" fill="#58595b"/><polygon points="15.41 44.22 15.77 44.43 21.52 47.76 21.69 47.62 21.69 47.62 21.69 47.62 15.77 44.19 15.62 44.1 15.41 44.22" fill="#58595b"/><polygon points="17.32 45.33 21.52 52.43 21.52 47.76 17.32 45.33" fill="#3d3d3d" style="mix-blend-mode:screen"/><polygon points="15.95 46.99 15.95 51.09 19.96 53.41 15.95 46.99" fill="#3d3d3d" style="mix-blend-mode:screen"/><polygon points="21.52 30.69 15.77 27.36 15.77 34.16 21.52 37.48 21.52 30.69" fill="#b5d4de"/><polygon points="15.58 27.29 15.59 34.3 15.58 34.31 15.59 34.31 15.59 34.31 15.59 34.31 21.69 37.82 21.69 37.33 21.52 37.23 15.95 34.02 15.95 27.25 15.58 27.05 15.58 27.29" fill="#6d6e71"/><polygon points="15.41 34.46 21.68 38.08 21.69 30.55 21.53 30.45 21.52 37.23 21.52 37.48 15.77 34.16 15.77 27.12 15.62 27.03 15.41 27.15 15.41 34.46" fill="#58595b"/><polygon points="15.41 27.15 15.77 27.36 21.52 30.69 21.69 30.55 21.69 30.54 21.69 30.54 15.77 27.12 15.62 27.03 15.41 27.15" fill="#58595b"/><polygon points="17.32 28.26 21.52 35.36 21.52 30.69 17.32 28.26" fill="#3d3d3d" style="mix-blend-mode:screen"/><polygon points="15.95 29.92 15.95 34.02 19.96 36.34 15.95 29.92" fill="#3d3d3d" style="mix-blend-mode:screen"/><polygon points="33.92 41.14 33.8 95 21.19 87.72 21.31 33.86 33.92 41.14" fill="#f1f2f2"/><polygon points="31.3 43.35 24.06 39.16 24.06 47.72 31.3 51.89 31.3 43.35" fill="#b5d4de"/><polygon points="23.83 39.08 23.84 47.9 23.83 47.9 23.84 47.91 23.84 47.91 23.84 47.91 31.51 52.32 31.51 51.71 31.3 51.58 24.29 47.54 24.29 39.02 23.83 38.77 23.83 39.08" fill="#6d6e71"/><polygon points="23.62 48.09 31.51 52.64 31.51 43.17 31.31 43.05 31.3 51.58 31.3 51.89 24.06 47.72 24.06 38.86 23.87 38.75 23.61 38.9 23.62 48.09" fill="#58595b"/><polygon points="23.61 38.9 24.06 39.16 31.3 43.35 31.51 43.17 31.52 43.17 31.51 43.17 24.06 38.86 23.87 38.75 23.61 38.9" fill="#58595b"/><polygon points="26.01 40.29 31.3 49.23 31.3 43.35 26.01 40.29" fill="#3d3d3d" style="mix-blend-mode:screen"/><polygon points="24.29 42.38 24.29 47.54 29.34 50.46 24.29 42.38" fill="#3d3d3d" style="mix-blend-mode:screen"/><polygon points="31.3 60.46 24.06 56.28 24.06 64.84 31.3 69.01 31.3 60.46" fill="#b5d4de"/><polygon points="23.83 56.19 23.84 65.01 23.83 65.02 23.84 65.02 23.84 65.03 23.84 65.02 31.51 69.44 31.51 68.82 31.3 68.69 24.29 64.65 24.29 56.13 23.83 55.88 23.83 56.19" fill="#6d6e71"/><polygon points="23.62 65.21 31.51 69.76 31.51 60.29 31.31 60.16 31.3 68.69 31.3 69.01 24.06 64.84 24.06 55.97 23.87 55.86 23.61 56.01 23.62 65.21" fill="#58595b"/><polygon points="23.61 56.01 24.06 56.28 31.3 60.46 31.51 60.29 31.51 60.28 31.51 60.28 24.06 55.97 23.87 55.86 23.61 56.01" fill="#58595b"/><polygon points="26.01 57.4 31.3 66.34 31.3 60.46 26.01 57.4" fill="#3d3d3d" style="mix-blend-mode:screen"/><polygon points="24.29 59.5 24.29 64.65 29.34 67.57 24.29 59.5" fill="#3d3d3d" style="mix-blend-mode:screen"/><polygon points="31.29 77.94 24.05 73.75 24.05 82.31 31.28 86.48 31.29 77.94" fill="#b5d4de"/><polygon points="23.82 73.66 23.82 82.49 23.82 82.49 23.82 82.5 23.82 82.5 23.82 82.5 31.5 86.91 31.5 86.29 31.28 86.17 24.27 82.12 24.27 73.61 23.82 73.36 23.82 73.66" fill="#6d6e71"/><polygon points="23.6 82.68 31.49 87.23 31.5 77.76 31.29 77.64 31.28 86.17 31.28 86.48 24.05 82.31 24.05 73.44 23.86 73.33 23.59 73.49 23.6 82.68" fill="#58595b"/><polygon points="23.59 73.49 24.05 73.75 31.29 77.94 31.5 77.76 31.5 77.76 31.5 77.75 24.05 73.44 23.86 73.33 23.59 73.49" fill="#58595b"/><polygon points="26 74.88 31.28 83.81 31.29 77.94 26 74.88" fill="#3d3d3d" style="mix-blend-mode:screen"/><polygon points="24.27 76.97 24.27 82.12 29.33 85.05 24.27 76.97" fill="#3d3d3d" style="mix-blend-mode:screen"/><polygon points="13.65 19.35 13.65 15.82 41.06 3.53 84.4 25 84.4 28.53 56.92 44.35 42.63 36.09 33.92 41.14 21.31 33.86 21.31 30.33 30.02 28.81 13.65 19.35" fill="#939598"/><polygon points="13.65 15.82 41.06 0 84.4 25 56.92 40.82 42.63 32.57 33.92 37.61 21.31 30.33 30.02 25.28 13.65 15.82" fill="#c0c7ce"/></g></g></g></svg>