<svg xmlns="http://www.w3.org/2000/svg" width="24" height="24" viewBox="0 0 24 24"><g fill="none" class="nc-icon-wrapper"><path d="M12 14a2 2 0 1 0 0-4 2 2 0 0 0 0 4z" fill="#ffffff" stroke="#ffffff" stroke-width="1.5" stroke-linecap="round" stroke-linejoin="round"/><path d="M20.905 11.688a.561.561 0 0 1 0 .624 17.9 17.9 0 0 1-2.586 2.836C16.214 17.014 14.029 18 12 18s-4.214-.986-6.319-2.852a17.908 17.908 0 0 1-2.586-2.836.561.561 0 0 1 0-.624c.04-.058 1.01-1.439 2.586-2.835C7.786 6.986 9.971 6 12 6s4.214.986 6.319 2.853a17.905 17.905 0 0 1 2.586 2.835z" stroke="#ffffff" stroke-width="1.5" stroke-linecap="round" stroke-linejoin="round"/></g></svg>