<svg xmlns="http://www.w3.org/2000/svg" width="24" height="24" viewBox="0 0 24 24"><g fill="none" class="nc-icon-wrapper"><path fill-rule="evenodd" clip-rule="evenodd" d="M7.319 3A3 3 0 0 0 4.56 4.818L2.404 9.851A5 5 0 0 0 2 11.821V17.4c0 .042.002.083.005.124A.603.603 0 0 0 2 17.6v2.8a.6.6 0 0 0 .6.6h2.8a.6.6 0 0 0 .6-.6V19h12v1.4a.6.6 0 0 0 .6.6h2.8a.6.6 0 0 0 .6-.6v-2.8a.611.611 0 0 0-.005-.076c.003-.04.005-.082.005-.124v-5.579c0-.677-.137-1.347-.404-1.97l-2.157-5.033A3 3 0 0 0 16.68 3H7.32zm11.736 6L17.6 5.606A1 1 0 0 0 16.681 5H7.32a1 1 0 0 0-.92.606L4.946 9h14.11zM6 13.6a.6.6 0 0 1 .6-.6h1.8a.6.6 0 0 1 .6.6v.8a.6.6 0 0 1-.6.6H6.6a.6.6 0 0 1-.6-.6v-.8zm9.6-.6a.6.6 0 0 0-.6.6v.8a.6.6 0 0 0 .6.6h1.8a.6.6 0 0 0 .6-.6v-.8a.6.6 0 0 0-.6-.6h-1.8z" fill="#000000"/></g></svg>