<?xml version="1.0" encoding="iso-8859-1"?>
<!-- Generator: Adobe Illustrator 19.0.0, SVG Export Plug-In . SVG Version: 6.00 Build 0)  -->
<svg version="1.1" id="Capa_1" xmlns="http://www.w3.org/2000/svg" xmlns:xlink="http://www.w3.org/1999/xlink" x="0px" y="0px"
	 viewBox="0 0 512 512" style="enable-background:new 0 0 512 512;" xml:space="preserve">
<g>
	<g>
		<path d="M435.2,426.667H76.8c-4.71,0-8.533,3.823-8.533,8.533v34.133c0,4.71,3.823,8.533,8.533,8.533h358.4
			c4.71,0,8.533-3.823,8.533-8.533V435.2C443.733,430.49,439.91,426.667,435.2,426.667z M426.667,460.8H85.333v-17.067h341.333
			V460.8z"/>
	</g>
</g>
<g>
	<g>
		<path d="M418.133,460.8H93.867c-4.71,0-8.533,3.823-8.533,8.533v34.133c0,4.71,3.823,8.533,8.533,8.533h324.267
			c4.71,0,8.533-3.823,8.533-8.533v-34.133C426.667,464.623,422.844,460.8,418.133,460.8z M409.6,494.933H102.4v-17.067h307.2
			V494.933z"/>
	</g>
</g>
<g>
	<g>
		<path d="M418.133,0H93.867c-4.71,0-8.533,3.823-8.533,8.533V435.2c0,4.71,3.823,8.533,8.533,8.533h324.267
			c4.71,0,8.533-3.823,8.533-8.533V8.533C426.667,3.823,422.844,0,418.133,0z M409.6,426.667H102.4v-409.6h307.2V426.667z"/>
	</g>
</g>
<g>
	<g>
		<path d="M384,34.133H128c-4.71,0-8.533,3.823-8.533,8.533v196.267c0,4.71,3.823,8.533,8.533,8.533h256
			c4.71,0,8.533-3.823,8.533-8.533V42.667C392.533,37.956,388.71,34.133,384,34.133z M375.467,230.4H136.533V51.2h238.933V230.4z"/>
	</g>
</g>
<g>
	<g>
		<path d="M349.867,68.267H162.133c-4.71,0-8.533,3.823-8.533,8.533v128c0,4.71,3.823,8.533,8.533,8.533h187.733
			c4.71,0,8.533-3.823,8.533-8.533v-128C358.4,72.09,354.577,68.267,349.867,68.267z M341.333,196.267H170.667V85.333h170.667
			V196.267z"/>
	</g>
</g>
<g>
	<g>
		<path d="M384,230.4H128c-4.71,0-8.533,3.823-8.533,8.533V435.2c0,4.71,3.823,8.533,8.533,8.533h256
			c4.71,0,8.533-3.823,8.533-8.533V238.933C392.533,234.223,388.71,230.4,384,230.4z M375.467,426.667H136.533v-179.2h238.933
			V426.667z"/>
	</g>
</g>
<g>
	<g>
		<path d="M349.867,264.533H162.133c-4.71,0-8.533,3.823-8.533,8.533v128c0,4.71,3.823,8.533,8.533,8.533h187.733
			c4.71,0,8.533-3.823,8.533-8.533v-128C358.4,268.356,354.577,264.533,349.867,264.533z M341.333,392.533H170.667V281.6h170.667
			V392.533z"/>
	</g>
</g>
<g>
	<g>
		<path d="M210.833,96.367c-3.337-3.337-8.73-3.337-12.066,0L181.7,113.434c-3.337,3.337-3.337,8.73,0,12.066
			c1.664,1.664,3.849,2.5,6.033,2.5s4.369-0.836,6.033-2.5l17.067-17.067C214.17,105.097,214.17,99.703,210.833,96.367z"/>
	</g>
</g>
<g>
	<g>
		<path d="M253.5,96.367c-3.337-3.337-8.73-3.337-12.066,0L181.7,156.1c-3.337,3.337-3.337,8.73,0,12.066
			c1.664,1.664,3.849,2.5,6.033,2.5s4.369-0.836,6.033-2.5l59.733-59.733C256.836,105.097,256.836,99.703,253.5,96.367z"/>
	</g>
</g>
<g>
	<g>
		<path d="M210.833,292.634c-3.337-3.337-8.73-3.337-12.066,0L181.7,309.7c-3.337,3.337-3.337,8.73,0,12.066
			c1.664,1.664,3.849,2.5,6.033,2.5s4.369-0.836,6.033-2.5l17.067-17.067C214.17,301.363,214.17,295.97,210.833,292.634z"/>
	</g>
</g>
<g>
	<g>
		<path d="M253.5,292.634c-3.337-3.337-8.73-3.337-12.066,0L181.7,352.367c-3.337,3.337-3.337,8.73,0,12.066
			c1.664,1.664,3.849,2.5,6.033,2.5s4.369-0.836,6.033-2.5L253.5,304.7C256.836,301.363,256.836,295.97,253.5,292.634z"/>
	</g>
</g>
<g>
</g>
<g>
</g>
<g>
</g>
<g>
</g>
<g>
</g>
<g>
</g>
<g>
</g>
<g>
</g>
<g>
</g>
<g>
</g>
<g>
</g>
<g>
</g>
<g>
</g>
<g>
</g>
<g>
</g>
</svg>
